<?xml version="1.0" encoding="utf-8"?>
<!-- Generator: Adobe Illustrator 16.0.3, SVG Export Plug-In . SVG Version: 6.00 Build 0)  -->
<!DOCTYPE svg PUBLIC "-//W3C//DTD SVG 1.1//EN" "http://www.w3.org/Graphics/SVG/1.1/DTD/svg11.dtd">
<svg version="1.1" id="Layer_1" xmlns="http://www.w3.org/2000/svg" xmlns:xlink="http://www.w3.org/1999/xlink" x="0px" y="0px"
	 width="400px" height="200px" viewBox="0 0 400 200" enable-background="new 0 0 400 200" xml:space="preserve">
<g>
	<g>
		<path fill="#787878" d="M145.314,79.732c0.148-1.409-0.874-2.671-2.283-2.818l-2.149-0.225v-2.783
			c0-1.417-1.146-2.563-2.564-2.563h-1.333l-0.05-0.639c-0.107-1.415-1.339-2.472-2.751-2.363l-39.169,3.002h-5.151l-10.683-1.12
			l0.425-4.044c0.061-0.593-0.371-1.127-0.966-1.19l-23.713-2.485c-0.597-0.062-1.13,0.369-1.191,0.964l-0.286,2.728h-4.259
			c-0.6,0-1.084,0.483-1.084,1.083v2.496l-3.184,0.244c-0.597,0.046-1.044,0.566-0.998,1.166l0.083,1.096
			c-0.367,0.444-0.596,1.005-0.596,1.627v1.389l-1.3,0.101c-1.414,0.108-2.47,1.341-2.362,2.751l3.262,42.577l-0.521,4.972
			c-0.093,0.887,0.28,1.716,0.921,2.246v2.396c0,0.536,0.166,1.033,0.447,1.445l0.203,2.632c0.108,1.411,1.34,2.471,2.753,2.36
			l21.498-1.645l-0.36-4.687l-0.415,0.033v-2.271h-2.002c-1.921,0-3.478-1.558-3.478-3.479s1.556-3.478,3.478-3.478h9.605
			c1.92,0,3.476,1.557,3.476,3.478s-1.556,3.479-3.476,3.479h-2.004v4.694h0.622l0.138,1.8l17.282-1.323l19.772,2.072l0.268-2.549
			h1.296v-4.694h-2.002c-1.921,0-3.478-1.558-3.478-3.479s1.557-3.478,3.478-3.478h9.604c1.92,0,3.479,1.557,3.479,3.478
			s-1.558,3.479-3.479,3.479h-2.003v3.271l-1.105-0.114l-0.488,4.669l20.093,2.108c1.41,0.147,2.67-0.875,2.818-2.285l0.359-3.425
			c0.658-0.463,1.091-1.226,1.091-2.093v-1.851c0.268-0.442,0.409-0.964,0.366-1.519l-0.366-4.776v-0.174L145.314,79.732z
			 M97.49,114.932H74.151v-4.414c0-4.756,2.851-8.841,6.934-10.659c-2.399-1.553-3.987-4.248-3.987-7.318
			c0-4.815,3.905-8.722,8.723-8.722c4.817,0,8.723,3.906,8.723,8.722c0,3.07-1.591,5.765-3.986,7.318
			c4.081,1.818,6.932,5.903,6.932,10.659V114.932z M114.322,110.521h-9.778v-1.591c0-4.756-2.852-8.84-6.932-10.657
			c2.395-1.557,3.986-4.249,3.986-7.318c0-3.791-2.422-7.008-5.8-8.211c1.598-2.03,4.071-3.338,6.855-3.338
			c4.816,0,8.721,3.906,8.721,8.723c0,3.071-1.589,5.764-3.987,7.319c4.083,1.817,6.935,5.903,6.935,10.659V110.521z"/>
		<g>
			<path fill="#787878" d="M152.087,89.755h20.825v5.194h-15.083v8.476h14.217v5.194h-14.217v13.396h-5.742V89.755z"/>
			<path fill="#787878" d="M195.421,122.017h-5.195v-3.508h-0.091c-1.003,2.188-3.053,4.055-6.698,4.055
				c-5.879,0-7.975-4.147-7.975-8.613v-13.805h5.468v11.073c0,2.414,0.183,6.425,4.01,6.425c3.6,0,5.012-2.642,5.012-5.559v-11.939
				h5.469V122.017z"/>
			<path fill="#787878" d="M199.431,87.568h5.467v34.449h-5.467V87.568z"/>
			<path fill="#787878" d="M208.999,87.568h5.469v34.449h-5.469V87.568z"/>
			<path fill="#787878" d="M246.362,116.959c-3.052,4.192-7.245,5.879-11.983,5.879c-9.843,0-16.678-7.109-16.678-16.952
				c0-9.841,6.835-16.951,16.678-16.951c4.374,0,8.294,1.458,11.119,5.057l-2.462,2.052c-2.004-3.008-5.423-4.375-8.657-4.375
				c-8.431,0-13.671,6.197-13.671,14.216c0,8.021,5.24,14.22,13.671,14.22c3.234,0,7.245-1.551,9.523-5.014L246.362,116.959z"/>
			<path fill="#787878" d="M258.71,100.418c6.473,0,11.073,4.647,11.073,11.072c0,6.426-4.601,11.073-11.073,11.073
				c-6.472,0-11.072-4.647-11.072-11.073C247.638,105.065,252.238,100.418,258.71,100.418z M258.71,120.105
				c5.149,0,8.34-3.875,8.34-8.615c0-4.738-3.19-8.611-8.34-8.611s-8.339,3.873-8.339,8.611
				C250.371,116.23,253.561,120.105,258.71,120.105z"/>
			<path fill="#787878" d="M273.609,106.889c0-1.55-0.229-4.832-0.229-5.924h2.735c0.045,1.551,0.091,3.28,0.182,3.692h0.137
				c1.094-2.325,3.782-4.239,7.199-4.239c6.563,0,8.021,4.466,8.021,9.067v12.531h-2.733v-12.394c0-3.417-0.956-6.744-5.287-6.744
				c-4.056,0-7.29,2.825-7.29,8.611v10.526h-2.734V106.889z"/>
			<path fill="#787878" d="M306.965,103.426h-6.016v13.717c0,1.867,1.093,2.963,2.916,2.963c1.049,0,2.143-0.32,3.1-0.73
				l0.227,2.461c-1.002,0.364-2.506,0.728-3.554,0.728c-3.918,0-5.423-2.414-5.423-5.421v-13.717h-4.557v-2.461h4.557v-6.062h2.734
				v6.062h6.016V103.426z"/>
			<path fill="#787878" d="M325.92,113.177c0,4.101,0.091,6.425,0.41,8.84h-2.552c-0.183-1.049-0.274-2.231-0.274-3.417h-0.091
				c-1.55,2.689-3.828,3.964-7.382,3.964c-3.601,0-7.428-1.776-7.428-6.242c0-6.425,7.519-7.063,11.666-7.063h3.189v-1.276
				c0-3.645-2.553-5.103-5.924-5.103c-2.462,0-4.559,0.774-6.426,2.37l-1.594-1.87c2.004-1.914,5.285-2.96,8.02-2.96
				c5.104,0,8.385,2.278,8.385,7.608V113.177z M320.451,111.445c-4.557,0-9.112,1.14-9.112,4.739c0,2.597,2.506,3.921,4.783,3.921
				c5.834,0,7.337-3.739,7.337-7.246v-1.414H320.451z"/>
			<path fill="#787878" d="M348.564,118.919c-2.049,2.46-4.738,3.645-7.746,3.645c-6.471,0-11.071-4.647-11.071-11.073
				c0-6.425,4.601-11.072,11.071-11.072c3.053,0,5.788,1.322,7.839,3.646l-2.188,1.64c-1.595-1.731-3.465-2.825-5.651-2.825
				c-5.148,0-8.339,3.873-8.339,8.611c0,4.74,3.19,8.615,8.339,8.615c2.28,0,4.238-1.187,5.651-2.918L348.564,118.919z"/>
			<path fill="#787878" d="M363.146,103.426h-6.016v13.717c0,1.867,1.095,2.963,2.917,2.963c1.049,0,2.143-0.32,3.099-0.73
				l0.229,2.461c-1.002,0.364-2.507,0.728-3.554,0.728c-3.92,0-5.424-2.414-5.424-5.421v-13.717h-4.557v-2.461h4.557v-6.062h2.733
				v6.062h6.016V103.426z"/>
		</g>
	</g>
	<rect x="12.5" y="37.5" fill="none" stroke="#009EBB" stroke-miterlimit="10" width="375" height="26"/>
	<rect x="12.5" y="138.5" fill="none" stroke="#009EBB" stroke-miterlimit="10" width="375" height="26"/>
	<rect x="12.5" y="37.5" fill="none" stroke="#009EBB" stroke-miterlimit="10" width="26" height="127"/>
	<rect x="362.5" y="37.5" fill="none" stroke="#009EBB" stroke-miterlimit="10" width="25" height="127"/>
	<text transform="matrix(1 0 0 1 15.1934 56.0435)" fill="#009EBB" font-family="'Avenir-Roman'" font-size="13.1579">1/3</text>
	<text transform="matrix(1 0 0 1 364.4707 156.9209)" fill="#009EBB" font-family="'Avenir-Roman'" font-size="13.1579">1/3</text>
</g>
</svg>
